<svg width="59" height="20" viewBox="0 0 59 20" fill="none" xmlns="http://www.w3.org/2000/svg">
<path d="M-3.68059e-06 15.2L5.9 1.02H6.1L12.02 15.2H9.3L8.52 13.18H3.54L2.8 15.2H-3.68059e-06ZM5.66 7.44L4.26 11.24H7.78L6.32 7.44L5.98 6.32L5.66 7.44ZM13.1686 15.2V-4.05312e-06H15.6086V15.2H13.1686ZM19.6453 16.92C19.8853 17.0667 20.1753 17.2 20.5153 17.32C20.862 17.44 21.2653 17.5 21.7253 17.5C22.5786 17.5 23.2186 17.2767 23.6453 16.83C24.072 16.39 24.2853 15.6867 24.2853 14.72V13.16C24.192 13.5 24.0453 13.8367 23.8453 14.17C23.6453 14.5033 23.3686 14.78 23.0153 15C22.6686 15.2133 22.2253 15.32 21.6853 15.32C20.932 15.32 20.2486 15.15 19.6353 14.81C19.0286 14.4633 18.5453 13.9167 18.1853 13.17C17.8253 12.4233 17.6453 11.4467 17.6453 10.24C17.6453 9.01333 17.822 8.01666 18.1753 7.25C18.5353 6.47666 19.0153 5.91 19.6153 5.55C20.222 5.18333 20.892 5 21.6253 5C22.4453 5 23.072 5.20666 23.5053 5.62C23.9386 6.03333 24.1986 6.48 24.2853 6.96L24.5653 5.24H26.5253V14.72C26.5253 16.2467 26.1386 17.4533 25.3653 18.34C24.5986 19.2333 23.4653 19.68 21.9653 19.68C21.1586 19.68 20.4586 19.5767 19.8653 19.37C19.272 19.17 18.8253 18.98 18.5253 18.8L19.6453 16.92ZM22.1853 13.36C22.7653 13.36 23.2186 13.0867 23.5453 12.54C23.8786 11.9867 24.0453 11.2067 24.0453 10.2C24.0453 9.24666 23.902 8.48 23.6153 7.9C23.3286 7.31333 22.8786 7.02 22.2653 7.02C21.9253 7.02 21.5986 7.12333 21.2853 7.33C20.9786 7.53 20.7253 7.86333 20.5253 8.33C20.3253 8.79666 20.2253 9.42666 20.2253 10.22C20.2253 11.3 20.4086 12.0933 20.7753 12.6C21.1486 13.1067 21.6186 13.36 22.1853 13.36Z" fill="white"/>
<path d="M34.3814 15.44C33.1214 15.44 32.0581 15.1433 31.1914 14.55C30.3314 13.95 29.6781 13.11 29.2314 12.03C28.7847 10.95 28.5614 9.68 28.5614 8.22C28.5614 6.77333 28.7814 5.51 29.2214 4.43C29.6614 3.35 30.3081 2.51333 31.1614 1.92C32.0214 1.32 33.0747 1.02 34.3214 1.02C35.6214 1.02 36.7014 1.32333 37.5614 1.93C38.4281 2.53666 39.0781 3.38 39.5114 4.46C39.9447 5.54 40.1614 6.79333 40.1614 8.22C40.1614 9.68 39.9381 10.95 39.4914 12.03C39.0447 13.11 38.3914 13.95 37.5314 14.55C36.6714 15.1433 35.6214 15.44 34.3814 15.44ZM34.3814 13.3C35.2547 13.3 35.9914 12.88 36.5914 12.04C37.1981 11.1933 37.5014 9.9 37.5014 8.16C37.5014 6.48666 37.2181 5.22666 36.6514 4.38C36.0914 3.52666 35.3147 3.1 34.3214 3.1C33.3547 3.1 32.5981 3.52666 32.0514 4.38C31.5114 5.23333 31.2414 6.5 31.2414 8.18C31.2414 9.92 31.5281 11.21 32.1014 12.05C32.6814 12.8833 33.4414 13.3 34.3814 13.3ZM45.1292 15.44C44.1225 15.44 43.3792 15.12 42.8992 14.48C42.4259 13.8333 42.1892 12.9467 42.1892 11.82V5.24H44.6892V11.6C44.6892 12.1467 44.7892 12.5933 44.9892 12.94C45.1892 13.2867 45.5292 13.46 46.0092 13.46C46.4825 13.46 46.8759 13.2867 47.1892 12.94C47.5092 12.5933 47.6692 12.1467 47.6692 11.6V5.24H50.1692V15.2H47.9092L47.8592 13.91C47.6125 14.3033 47.2759 14.6567 46.8492 14.97C46.4292 15.2833 45.8559 15.44 45.1292 15.44ZM56.1742 15.5C55.0475 15.5 54.2842 15.2067 53.8842 14.62C53.4909 14.0333 53.2942 13.1467 53.2942 11.96V7.34H51.9942V5.24H53.3942L53.5342 3.14L55.7142 2.2V5.24H58.1742V7.34H55.7142V11.9C55.7142 12.48 55.7942 12.8833 55.9542 13.11C56.1209 13.33 56.3475 13.44 56.6342 13.44C56.9275 13.44 57.2375 13.3633 57.5642 13.21C57.8909 13.0567 58.1475 12.9 58.3342 12.74L58.8142 14.76C58.6075 14.9067 58.3375 15.0367 58.0042 15.15C57.6775 15.2567 57.3442 15.34 57.0042 15.4C56.6709 15.4667 56.3942 15.5 56.1742 15.5Z" fill="#56EAFA"/>
</svg>
